# xmcd CD database file
#
# Track frame offsets:
#	150
#	12413
#	45738
#	69979
#	88969
#	117794
#	136333
#	155475
#	177125
#	214365
#	239570
#	268188
#
# Disc length: 4014 seconds
#
# Revision: 0
# Processed by: cddbd v1.5.1PL0 Copyright (c) Steve Scherf et al.
# Submitted via: CDex 1.51
#
DISCID=ae0fac0c
DTITLE=Various Artist - Cesta k uvolneniu
DYEAR=1900
DGENRE=New Age
TTITLE0=Ako relaxovat
TTITLE1=Pocit tiaze a tepla
TTITLE2=Pokojne dychanie a uvolnenie tvare
TTITLE3=Teplo v oblasti brucha
TTITLE4=Predstava letnej krajiny
TTITLE5=Aktivizacia
TTITLE6=Spievanie vln-Frantisek Biros
TTITLE7=Angelic Love-Robert Coxton
TTITLE8=Vznasanie-Frantisek Biros
TTITLE9=Dawn (variation1)-Pierre Laederach
TTITLE10=The Dream-Rick Wakeman
TTITLE11=Tanec lesnych vil-Tomas Hodr
EXTD=
EXTT0=
EXTT1=
EXTT2=
EXTT3=
EXTT4=
EXTT5=
EXTT6=
EXTT7=
EXTT8=
EXTT9=
EXTT10=
EXTT11=
PLAYORDER=
